<?xml version="1.0" ?><!DOCTYPE svg  PUBLIC '-//W3C//DTD SVG 1.1//EN'  'http://www.w3.org/Graphics/SVG/1.1/DTD/svg11.dtd'><svg enable-background="new 0 0 24 24" height="24px" id="Layer_1" version="1.1" viewBox="0 0 24 24" width="24px" xml:space="preserve" xmlns="http://www.w3.org/2000/svg" xmlns:xlink="http://www.w3.org/1999/xlink"><g><path d="M19,5c-0.1,0-0.2,0-0.3,0c-0.9-2.9-3.5-5-6.7-5C9.6,0,7.5,1.2,6.2,3C6.2,3,6.1,3,6,3C2.7,3,0,5.7,0,9s2.7,6,6,6h13   c2.8,0,5-2.2,5-5S21.8,5,19,5z M19,13H6c-2.2,0-4-1.8-4-4c0-0.3,0-0.5,0.1-0.8c0-0.1,0-0.2,0.1-0.2c0-0.2,0.1-0.3,0.1-0.5   c0-0.1,0.1-0.2,0.1-0.3C2.5,7.1,2.5,7,2.6,6.9c0.1-0.1,0.1-0.2,0.2-0.3C2.9,6.5,3,6.4,3.1,6.3C3.1,6.2,3.2,6.1,3.3,6   C3.4,6,3.5,5.9,3.6,5.8c0.1-0.1,0.2-0.2,0.3-0.2c0.1,0,0.2-0.1,0.2-0.1c0.1-0.1,0.3-0.1,0.4-0.2c0.1,0,0.1,0,0.2-0.1   C5.2,5.1,5.6,5,6,5c0.5,0,0.9,0.1,1.3,0.2c0.7-1.7,2.2-3,4.1-3.2c0,0,0.1,0,0.1,0c0.2,0,0.3,0,0.5,0c1.1,0,2.1,0.4,2.9,1   c0,0,0,0,0,0c0.9,0.6,1.5,1.5,1.8,2.6c0.1,0.2,0.1,0.4,0.2,0.6C17,6.5,17,6.7,17,7h2c1.7,0,3,1.3,3,3S20.7,13,19,13z"/><path d="M12,3v1c1.7,0,3,1.3,3,3h1C16,4.8,14.2,3,12,3z"/><path d="M11,18c-0.6,0-1,0.4-1,1v2c0,0.6,0.4,1,1,1s1-0.4,1-1v-2C12,18.4,11.6,18,11,18z"/><path d="M7,16c-0.6,0-1,0.4-1,1v2c0,0.6,0.4,1,1,1s1-0.4,1-1v-2C8,16.4,7.6,16,7,16z"/><path d="M19,18c-0.6,0-1,0.4-1,1v2c0,0.6,0.4,1,1,1s1-0.4,1-1v-2C20,18.4,19.6,18,19,18z"/><path d="M15,16c-0.6,0-1,0.4-1,1v2c0,0.6,0.4,1,1,1s1-0.4,1-1v-2C16,16.4,15.6,16,15,16z"/></g></svg>