<?xml version="1.0" ?><!DOCTYPE svg  PUBLIC '-//W3C//DTD SVG 1.1//EN'  'http://www.w3.org/Graphics/SVG/1.1/DTD/svg11.dtd'><svg enable-background="new 0 0 24 24" height="24px" id="Layer_1" version="1.1" viewBox="0 0 24 24" width="24px" xml:space="preserve" xmlns="http://www.w3.org/2000/svg" xmlns:xlink="http://www.w3.org/1999/xlink"><g><path d="M11.1,10.4L10.7,10l0.4-0.4c0.2-0.2,0.2-0.5,0-0.7c-0.2-0.2-0.5-0.2-0.7,0L10,9.3L7.8,7.1c0,0,0-0.1,0.1-0.1H11v0.5   C11,7.8,11.2,8,11.5,8S12,7.8,12,7.5V7h0.5C12.8,7,13,6.8,13,6.5S12.8,6,12.5,6H12V5.5C12,5.2,11.8,5,11.5,5S11,5.2,11,5.5V6H7.9   c0,0,0-0.1-0.1-0.1L10,3.7L10.4,4c0.2,0.2,0.5,0.2,0.7,0c0.2-0.2,0.2-0.5,0-0.7L10.7,3l0.4-0.4c0.2-0.2,0.2-0.5,0-0.7   c-0.2-0.2-0.5-0.2-0.7,0L10,2.3L9.7,1.9C9.5,1.7,9.2,1.7,9,1.9C8.8,2.1,8.8,2.4,9,2.6L9.3,3L7.1,5.2c0,0-0.1,0-0.1-0.1V2h0.5   C7.8,2,8,1.8,8,1.5S7.8,1,7.5,1H7V0.5C7,0.2,6.8,0,6.5,0S6,0.2,6,0.5V1H5.5C5.2,1,5,1.2,5,1.5S5.2,2,5.5,2H6v3.1c0,0-0.1,0-0.1,0.1   L3.7,3L4,2.6c0.2-0.2,0.2-0.5,0-0.7c-0.2-0.2-0.5-0.2-0.7,0L3,2.3L2.6,1.9c-0.2-0.2-0.5-0.2-0.7,0c-0.2,0.2-0.2,0.5,0,0.7L2.3,3   L1.9,3.3C1.7,3.5,1.7,3.8,1.9,4c0.2,0.2,0.5,0.2,0.7,0L3,3.7l2.2,2.2c0,0,0,0.1-0.1,0.1H2V5.5C2,5.2,1.8,5,1.5,5S1,5.2,1,5.5V6H0.5   C0.2,6,0,6.2,0,6.5S0.2,7,0.5,7H1v0.5C1,7.8,1.2,8,1.5,8S2,7.8,2,7.5V7h3.1c0,0,0,0.1,0.1,0.1L3,9.3L2.6,9C2.4,8.8,2.1,8.8,1.9,9   s-0.2,0.5,0,0.7L2.3,10l-0.4,0.4c-0.2,0.2-0.2,0.5,0,0.7c0.2,0.2,0.5,0.2,0.7,0L3,10.7l0.4,0.4c0.2,0.2,0.5,0.2,0.7,0   c0.2-0.2,0.2-0.5,0-0.7L3.7,10l2.2-2.2c0,0,0.1,0,0.1,0.1V11H5.5C5.2,11,5,11.2,5,11.5S5.2,12,5.5,12H6v0.5C6,12.8,6.2,13,6.5,13   S7,12.8,7,12.5V12h0.5C7.8,12,8,11.8,8,11.5S7.8,11,7.5,11H7V7.9c0,0,0.1,0,0.1-0.1L9.3,10L9,10.4c-0.2,0.2-0.2,0.5,0,0.7   s0.5,0.2,0.7,0l0.4-0.4l0.4,0.4c0.2,0.2,0.5,0.2,0.7,0C11.3,10.9,11.3,10.6,11.1,10.4z M6.9,6.9L6.9,6.9C6.8,6.9,6.6,7,6.5,7   C6.4,7,6.2,6.9,6.2,6.9l0,0C6.1,6.8,6,6.6,6,6.5c0-0.1,0.1-0.3,0.1-0.4l0,0C6.2,6.1,6.4,6,6.5,6C6.8,6,7,6.2,7,6.5   C7,6.6,6.9,6.8,6.9,6.9z"/><path d="M23.5,17H23v-0.5c0-0.3-0.2-0.5-0.5-0.5S22,16.2,22,16.5V17h-3.1c0,0,0-0.1-0.1-0.1l2.2-2.2l0.4,0.4c0.2,0.2,0.5,0.2,0.7,0   c0.2-0.2,0.2-0.5,0-0.7L21.7,14l0.4-0.4c0.2-0.2,0.2-0.5,0-0.7c-0.2-0.2-0.5-0.2-0.7,0L21,13.3l-0.4-0.4c-0.2-0.2-0.5-0.2-0.7,0   c-0.2,0.2-0.2,0.5,0,0.7l0.4,0.4l-2.2,2.2c0,0-0.1,0-0.1-0.1V13h0.5c0.3,0,0.5-0.2,0.5-0.5S18.8,12,18.5,12H18v-0.5   c0-0.3-0.2-0.5-0.5-0.5S17,11.2,17,11.5V12h-0.5c-0.3,0-0.5,0.2-0.5,0.5s0.2,0.5,0.5,0.5H17v3.1c0,0-0.1,0-0.1,0.1L14.7,14l0.4-0.4   c0.2-0.2,0.2-0.5,0-0.7c-0.2-0.2-0.5-0.2-0.7,0L14,13.3l-0.4-0.4c-0.2-0.2-0.5-0.2-0.7,0c-0.2,0.2-0.2,0.5,0,0.7l0.4,0.4l-0.4,0.4   c-0.2,0.2-0.2,0.5,0,0.7c0.2,0.2,0.5,0.2,0.7,0l0.4-0.4l2.2,2.2c0,0,0,0.1-0.1,0.1H13v-0.5c0-0.3-0.2-0.5-0.5-0.5S12,16.2,12,16.5   V17h-0.5c-0.3,0-0.5,0.2-0.5,0.5s0.2,0.5,0.5,0.5H12v0.5c0,0.3,0.2,0.5,0.5,0.5s0.5-0.2,0.5-0.5V18h3.1c0,0,0,0.1,0.1,0.1L14,20.3   L13.6,20c-0.2-0.2-0.5-0.2-0.7,0s-0.2,0.5,0,0.7l0.4,0.4l-0.4,0.4c-0.2,0.2-0.2,0.5,0,0.7c0.2,0.2,0.5,0.2,0.7,0l0.4-0.4l0.4,0.4   c0.2,0.2,0.5,0.2,0.7,0c0.2-0.2,0.2-0.5,0-0.7L14.7,21l2.2-2.2c0,0,0.1,0,0.1,0.1V22h-0.5c-0.3,0-0.5,0.2-0.5,0.5s0.2,0.5,0.5,0.5   H17v0.5c0,0.3,0.2,0.5,0.5,0.5s0.5-0.2,0.5-0.5V23h0.5c0.3,0,0.5-0.2,0.5-0.5S18.8,22,18.5,22H18v-3.1c0,0,0.1,0,0.1-0.1l2.2,2.2   L20,21.4c-0.2,0.2-0.2,0.5,0,0.7s0.5,0.2,0.7,0l0.4-0.4l0.4,0.4c0.2,0.2,0.5,0.2,0.7,0c0.2-0.2,0.2-0.5,0-0.7L21.7,21l0.4-0.4   c0.2-0.2,0.2-0.5,0-0.7c-0.2-0.2-0.5-0.2-0.7,0L21,20.3l-2.2-2.2c0,0,0-0.1,0.1-0.1H22v0.5c0,0.3,0.2,0.5,0.5,0.5s0.5-0.2,0.5-0.5   V18h0.5c0.3,0,0.5-0.2,0.5-0.5S23.8,17,23.5,17z M17.9,17.9L17.9,17.9c-0.1,0.1-0.2,0.1-0.4,0.1c-0.1,0-0.3-0.1-0.3-0.1l0,0   c-0.1-0.1-0.1-0.2-0.1-0.3c0-0.1,0.1-0.3,0.1-0.4l0,0c0.1-0.1,0.2-0.1,0.4-0.1c0.3,0,0.5,0.2,0.5,0.5C18,17.6,17.9,17.8,17.9,17.9z   "/></g></svg>