<?xml version="1.0" ?><!DOCTYPE svg  PUBLIC '-//W3C//DTD SVG 1.1//EN'  'http://www.w3.org/Graphics/SVG/1.1/DTD/svg11.dtd'><svg enable-background="new 0 0 24 24" height="24px" id="Layer_1" version="1.1" viewBox="0 0 24 24" width="24px" xml:space="preserve" xmlns="http://www.w3.org/2000/svg" xmlns:xlink="http://www.w3.org/1999/xlink"><g><path d="M12,5c-3.9,0-7,3.1-7,7s3.1,7,7,7c3.9,0,7-3.1,7-7S15.9,5,12,5z M12,17c-2.8,0-5-2.2-5-5s2.2-5,5-5c2.8,0,5,2.2,5,5   S14.8,17,12,17z"/><path d="M4,12c0-0.3,0-0.7,0.1-1H1c-0.6,0-1,0.4-1,1s0.4,1,1,1h3.1C4,12.7,4,12.3,4,12z"/><path d="M5.7,7.1c0.2-0.3,0.4-0.5,0.7-0.8s0.5-0.5,0.8-0.7L4.9,3.5c-0.4-0.4-1-0.4-1.4,0c-0.4,0.4-0.4,1,0,1.4L5.7,7.1z"/><path d="M13,4.1V1c0-0.6-0.4-1-1-1s-1,0.4-1,1v3.1C11.3,4,11.7,4,12,4C12.3,4,13,4,13,4.1z"/><path d="M18.3,7.1l2.2-2.2c0.4-0.4,0.4-1,0-1.4c-0.4-0.4-1-0.4-1.4,0l-2.2,2.2c0.3,0.2,0.5,0.4,0.8,0.7C17.9,6.6,18.3,7.1,18.3,7.1   z"/><path d="M23,11l-3.1,0c0,0.3,0.1,0.7,0.1,1c0,0.3,0,1-0.1,1H23c0.6,0,1-0.4,1-1C24,11.4,23.6,11,23,11z"/><path d="M18.3,16.9c-0.2,0.3-0.4,0.5-0.7,0.8c-0.2,0.2-0.7,0.7-0.8,0.7l2.2,2.2c0.4,0.4,1,0.4,1.4,0c0.4-0.4,0.4-1,0-1.4L18.3,16.9   z"/><path d="M11,19.9V23c0,0.6,0.4,1,1,1c0.6,0,1-0.4,1-1v-3.1c0,0-0.7,0.1-1,0.1C11.7,20,11,20,11,19.9z"/><path d="M5.7,16.9l-2.2,2.2c-0.4,0.4-0.4,1,0,1.4c0.4,0.4,1,0.4,1.4,0l2.2-2.2c0,0-0.5-0.4-0.8-0.7C6.1,17.4,5.7,16.9,5.7,16.9z"/><path d="M12,8v1c1.7,0,3,1.3,3,3h1C16,9.8,14.2,8,12,8z"/></g></svg>